<svg width="10" height="16" viewBox="0 0 10 16" fill="none" xmlns="http://www.w3.org/2000/svg">
<path d="M2.1875 7.375C2.36009 7.375 2.5 7.23509 2.5 7.0625C2.5 6.88991 2.36009 6.75 2.1875 6.75C2.01491 6.75 1.875 6.88991 1.875 7.0625C1.875 7.23509 2.01491 7.375 2.1875 7.375Z" fill="#0984E3"/>
<path d="M2.1875 9.25C2.36009 9.25 2.5 9.11009 2.5 8.9375C2.5 8.76491 2.36009 8.625 2.1875 8.625C2.01491 8.625 1.875 8.76491 1.875 8.9375C1.875 9.11009 2.01491 9.25 2.1875 9.25Z" fill="#0984E3"/>
<path d="M2.1875 11.125C2.36009 11.125 2.5 10.9851 2.5 10.8125C2.5 10.6399 2.36009 10.5 2.1875 10.5C2.01491 10.5 1.875 10.6399 1.875 10.8125C1.875 10.9851 2.01491 11.125 2.1875 11.125Z" fill="#0984E3"/>
<path d="M2.1875 13C2.36009 13 2.5 12.8601 2.5 12.6875C2.5 12.5149 2.36009 12.375 2.1875 12.375C2.01491 12.375 1.875 12.5149 1.875 12.6875C1.875 12.8601 2.01491 13 2.1875 13Z" fill="#0984E3"/>
<path d="M4.0625 7.375H7.8125C7.98506 7.375 8.125 7.23506 8.125 7.0625C8.125 6.88994 7.98506 6.75 7.8125 6.75H4.0625C3.88994 6.75 3.75 6.88994 3.75 7.0625C3.75 7.23506 3.88994 7.375 4.0625 7.375Z" fill="#0984E3"/>
<path d="M4.0625 9.25H7.8125C7.98506 9.25 8.125 9.11006 8.125 8.9375C8.125 8.76494 7.98506 8.625 7.8125 8.625H4.0625C3.88994 8.625 3.75 8.76494 3.75 8.9375C3.75 9.11006 3.88994 9.25 4.0625 9.25Z" fill="#0984E3"/>
<path d="M4.0625 11.125H7.8125C7.98506 11.125 8.125 10.9851 8.125 10.8125C8.125 10.6399 7.98506 10.5 7.8125 10.5H4.0625C3.88994 10.5 3.75 10.6399 3.75 10.8125C3.75 10.9851 3.88994 11.125 4.0625 11.125Z" fill="#0984E3"/>
<path d="M4.0625 13H7.8125C7.98506 13 8.125 12.8601 8.125 12.6875C8.125 12.5149 7.98506 12.375 7.8125 12.375H4.0625C3.88994 12.375 3.75 12.5149 3.75 12.6875C3.75 12.8601 3.88994 13 4.0625 13Z" fill="#0984E3"/>
<path d="M9.6875 2.8125H7.14794C7.03463 2.37391 6.68862 2.02787 6.25 1.91456V1.25C6.25 0.56075 5.68925 0 5 0C4.31075 0 3.75 0.56075 3.75 1.25V1.91456C3.31141 2.02787 2.96538 2.37391 2.85206 2.8125H0.3125C0.139938 2.8125 0 2.95244 0 3.125V15.6875C0 15.8601 0.139938 16 0.3125 16H3.59375C3.76631 16 3.90625 15.8601 3.90625 15.6875C3.90625 15.5149 3.76631 15.375 3.59375 15.375H0.625V3.4375H2.8125V4.0625C2.8125 4.23506 2.95244 4.375 3.125 4.375H6.875C7.04756 4.375 7.1875 4.23506 7.1875 4.0625V3.4375H9.375V15.375H6.40625C6.23369 15.375 6.09375 15.5149 6.09375 15.6875C6.09375 15.8601 6.23369 16 6.40625 16H9.6875C9.86006 16 10 15.8601 10 15.6875V3.125C10 2.95244 9.86009 2.8125 9.6875 2.8125ZM4.375 1.25C4.375 0.905375 4.65538 0.625 5 0.625C5.34462 0.625 5.625 0.905375 5.625 1.25V1.875H4.375V1.25ZM6.5625 3.75H3.4375V3.125C3.4375 2.78038 3.71788 2.5 4.0625 2.5H5.9375C6.28212 2.5 6.5625 2.78038 6.5625 3.125V3.75Z" fill="#0984E3"/>
<path d="M5 16C5.17259 16 5.3125 15.8601 5.3125 15.6875C5.3125 15.5149 5.17259 15.375 5 15.375C4.82741 15.375 4.6875 15.5149 4.6875 15.6875C4.6875 15.8601 4.82741 16 5 16Z" fill="#0984E3"/>
</svg>
