<svg width="12" height="6" viewBox="0 0 12 6" fill="none" xmlns="http://www.w3.org/2000/svg">
<path d="M11.5312 2.53125H1.6041L3.24857 0.894747C3.43206 0.712122 3.43277 0.415334 3.25014 0.231842C3.06752 0.0483265 2.7707 0.047647 2.58721 0.230248L0.1379 2.66775C0.137736 2.66789 0.137619 2.66805 0.137478 2.66819C-0.0455454 2.85082 -0.0461314 3.14857 0.137431 3.3318C0.137595 3.33194 0.137712 3.3321 0.137853 3.33224L2.58717 5.76974C2.77063 5.95232 3.06745 5.95169 3.2501 5.76815C3.43272 5.58466 3.43202 5.28787 3.24853 5.10524L1.6041 3.46874H11.5312C11.7901 3.46874 12 3.25888 12 2.99999C12 2.7411 11.7901 2.53125 11.5312 2.53125Z" fill="white"/>
</svg>
