<svg width="37" height="37" viewBox="0 0 37 37" fill="none" xmlns="http://www.w3.org/2000/svg">
<path d="M14.9041 27.0285V14.6936H13.4402C12.3919 15.2525 11.3786 15.8749 10.4062 16.5575V18.1647C11.2734 17.5704 12.6471 16.7309 13.3154 16.3679H13.3431V27.0285H14.9041ZM17.6513 24.0107C17.76 25.4907 19.0249 27.2621 21.5895 27.2621C24.4986 27.2621 26.2145 24.7969 26.2145 20.6229C26.2145 16.1505 24.4084 14.4531 21.6982 14.4531C19.5568 14.4531 17.5426 16.0071 17.5426 18.6364C17.5426 21.3189 19.4481 22.7296 21.4184 22.7296C23.1435 22.7296 24.2628 21.8601 24.6166 20.9027H24.679C24.6698 23.9459 23.6129 25.9069 21.6612 25.9069C20.1257 25.9069 19.3302 24.8663 19.2331 24.0107H17.6513ZM24.4801 18.6526C24.4801 20.2621 23.1874 21.3814 21.7421 21.3814C20.3523 21.3814 19.0966 20.4957 19.0966 18.6064C19.0966 16.7032 20.4425 15.8082 21.7976 15.8082C23.2614 15.8082 24.4801 16.7286 24.4801 18.6526Z" fill="#0984E3"/>
<path fill-rule="evenodd" clip-rule="evenodd" d="M2.3125 9.25V32.375C2.3125 32.9883 2.55614 33.5765 2.98982 34.0102C3.42349 34.4439 4.01169 34.6875 4.625 34.6875H32.375C32.9883 34.6875 33.5765 34.4439 34.0102 34.0102C34.4439 33.5765 34.6875 32.9883 34.6875 32.375V9.25H2.3125ZM4.625 2.3125C3.39837 2.3125 2.22199 2.79978 1.35463 3.66713C0.487275 4.53449 0 5.71087 0 6.9375L0 32.375C0 33.6016 0.487275 34.778 1.35463 35.6454C2.22199 36.5127 3.39837 37 4.625 37H32.375C33.6016 37 34.778 36.5127 35.6454 35.6454C36.5127 34.778 37 33.6016 37 32.375V6.9375C37 5.71087 36.5127 4.53449 35.6454 3.66713C34.778 2.79978 33.6016 2.3125 32.375 2.3125H4.625Z" fill="#0984E3"/>
<path fill-rule="evenodd" clip-rule="evenodd" d="M8.09375 0C8.40041 0 8.6945 0.121819 8.91134 0.338658C9.12818 0.555497 9.25 0.849593 9.25 1.15625V2.3125C9.25 2.61916 9.12818 2.91325 8.91134 3.13009C8.6945 3.34693 8.40041 3.46875 8.09375 3.46875C7.78709 3.46875 7.493 3.34693 7.27616 3.13009C7.05932 2.91325 6.9375 2.61916 6.9375 2.3125V1.15625C6.9375 0.849593 7.05932 0.555497 7.27616 0.338658C7.493 0.121819 7.78709 0 8.09375 0V0ZM28.9062 0C29.2129 0 29.507 0.121819 29.7238 0.338658C29.9407 0.555497 30.0625 0.849593 30.0625 1.15625V2.3125C30.0625 2.61916 29.9407 2.91325 29.7238 3.13009C29.507 3.34693 29.2129 3.46875 28.9062 3.46875C28.5996 3.46875 28.3055 3.34693 28.0887 3.13009C27.8718 2.91325 27.75 2.61916 27.75 2.3125V1.15625C27.75 0.849593 27.8718 0.555497 28.0887 0.338658C28.3055 0.121819 28.5996 0 28.9062 0V0Z" fill="#0984E3"/>
</svg>
