<svg width="12" height="12" viewBox="0 0 12 12" fill="none" xmlns="http://www.w3.org/2000/svg">
<g clip-path="url(#clip0)">
<path d="M11.0755 7.5383C10.9105 7.5383 10.7767 7.67209 10.7767 7.83716V10.4907C10.7761 10.9857 10.3751 11.3868 9.88008 11.3873H1.49431C0.99932 11.3868 0.598308 10.9857 0.597724 10.4907V2.70268C0.598308 2.20781 0.99932 1.80668 1.49431 1.8061H4.14788C4.31295 1.8061 4.44674 1.67231 4.44674 1.50724C4.44674 1.34228 4.31295 1.20837 4.14788 1.20837H1.49431C0.669405 1.20931 0.000933944 1.87778 0 2.70268V10.4908C0.000933944 11.3158 0.669405 11.9842 1.49431 11.9852H9.88008C10.705 11.9842 11.3735 11.3158 11.3744 10.4908V7.83716C11.3744 7.67209 11.2406 7.5383 11.0755 7.5383Z" fill="#0984E3"/>
<path d="M11.256 0.439452C10.7308 -0.0857745 9.87929 -0.0857745 9.35406 0.439452L4.02216 5.77134C3.98562 5.80788 3.95924 5.85318 3.94546 5.90291L3.2443 8.43425C3.21547 8.53803 3.24477 8.64917 3.32089 8.72541C3.39712 8.80152 3.50826 8.83083 3.61205 8.80211L6.14339 8.10083C6.19312 8.08706 6.23842 8.06067 6.27496 8.02413L11.6067 2.69213C12.1311 2.16655 12.1311 1.31573 11.6067 0.790149L11.256 0.439452ZM4.67336 5.9656L9.0371 1.60175L10.4444 3.00908L6.08058 7.37294L4.67336 5.9656ZM4.39224 6.5297L5.51659 7.65417L3.96134 8.08507L4.39224 6.5297ZM11.1841 2.26952L10.8672 2.58647L9.45971 1.17902L9.77679 0.862062C10.0685 0.570321 10.5416 0.570321 10.8333 0.862062L11.1841 1.21276C11.4754 1.50485 11.4754 1.97754 11.1841 2.26952Z" fill="#0984E3"/>
</g>
<defs>
<clipPath id="clip0">
<rect width="12" height="12" fill="white"/>
</clipPath>
</defs>
</svg>
