<svg width="36" height="36" viewBox="0 0 36 36" fill="none" xmlns="http://www.w3.org/2000/svg">
<g clip-path="url(#clip0)">
<path d="M34.2336 14.9958H1.76639C0.790875 14.9958 0 15.7867 0 16.7622V31.2681C0 32.2436 0.790875 33.0345 1.76639 33.0345H34.2337C35.2092 33.0345 36.0001 32.2437 36.0001 31.2681V16.7622C36 15.7867 35.2092 14.9958 34.2336 14.9958V14.9958Z" fill="#8EAFE2"/>
<path d="M14.7646 27.5409H21.2354V33.0345H14.7646V27.5409Z" fill="#7C93DD"/>
<path d="M4.16995 12.9764C8.1379 11.4371 13.4968 11.4953 18 14.0353V28.0753C12.8693 25.1814 6.62787 25.5092 2.59833 27.7505V15.2887C2.59833 14.2686 3.21884 13.3453 4.16995 12.9764V12.9764Z" fill="#FAE0BD"/>
<path d="M31.83 12.9764C27.8621 11.4371 22.5032 11.4953 18 14.0353V28.0753C23.1307 25.1814 29.3721 25.5092 33.4017 27.7505V15.2887C33.4017 14.2686 32.7812 13.3453 31.83 12.9764Z" fill="#FBF1CF"/>
<path d="M18 28.0753C12.8693 25.1814 6.62787 25.5092 2.59833 27.7505V29.4683C2.59833 30.0029 3.03166 30.4362 3.56618 30.4362H32.4338C32.9683 30.4362 33.4017 30.0029 33.4017 29.4683V27.7505C29.3721 25.5092 23.1307 25.1814 18 28.0753Z" fill="#E0B799"/>
<path d="M30.3084 16.1775H28.7038C28.7038 10.2746 23.9022 5.47296 18 5.47296C12.0978 5.47296 7.29618 10.2746 7.29618 16.1775H5.69158C5.18364 16.1775 4.78582 15.7454 4.82161 15.2387C5.30458 8.39015 11.0307 2.96533 18 2.96533C24.9693 2.96533 30.6954 8.39015 31.1784 15.2387C31.2142 15.7453 30.8163 16.1775 30.3084 16.1775V16.1775Z" fill="#EDA1AB"/>
<path d="M11.4339 4.71582C7.72185 6.85093 5.13907 10.7372 4.82154 15.2387C4.78582 15.7454 5.18364 16.1775 5.69151 16.1775H7.29611C7.29611 12.7322 8.93228 9.66259 11.4678 7.7034C11.237 6.65138 11.2188 5.60218 11.4339 4.71582Z" fill="#E58996"/>
<path d="M28.7038 16.1775H26.1963C26.1963 11.6574 22.5194 7.98058 18 7.98058C13.4806 7.98058 9.80374 11.6574 9.80374 16.1775H7.29611C7.29611 10.2747 12.0978 5.47302 17.9999 5.47302C23.9022 5.47295 28.7038 10.2747 28.7038 16.1775V16.1775Z" fill="#F6EE86"/>
<path d="M26.1963 16.1774H24.5981C24.1161 16.1774 23.6985 15.8283 23.6291 15.3513C23.2291 12.6005 20.8612 10.488 18 10.488C15.1388 10.488 12.7709 12.6005 12.3709 15.3513C12.3015 15.8283 11.884 16.1774 11.4019 16.1774H9.80374C9.80374 11.6573 13.4806 7.98047 18 7.98047C22.5194 7.98047 26.1963 11.6573 26.1963 16.1774Z" fill="#8EE2E1"/>
<path d="M12.8606 20.0316H6.74683C6.45552 20.0316 6.21948 19.7955 6.21948 19.5043C6.21948 19.213 6.45552 18.9769 6.74683 18.9769H12.8606C13.1519 18.9769 13.388 19.213 13.388 19.5043C13.388 19.7955 13.1519 20.0316 12.8606 20.0316Z" fill="#4E5660"/>
<path d="M29.2532 20.0316H23.1393C22.848 20.0316 22.612 19.7955 22.612 19.5043C22.612 19.213 22.848 18.9769 23.1393 18.9769H29.2532C29.5445 18.9769 29.7805 19.213 29.7805 19.5043C29.7805 19.7955 29.5445 20.0316 29.2532 20.0316Z" fill="#4E5660"/>
<path d="M12.8606 22.5836H6.74683C6.45552 22.5836 6.21948 22.3475 6.21948 22.0563C6.21948 21.765 6.45552 21.5289 6.74683 21.5289H12.8606C13.1519 21.5289 13.388 21.765 13.388 22.0563C13.388 22.3475 13.1519 22.5836 12.8606 22.5836Z" fill="#4E5660"/>
<path d="M11.4679 7.70337C8.93235 9.66263 7.29617 12.7322 7.29617 16.1774H9.8038C9.8038 13.8063 10.816 11.6675 12.4305 10.1696C11.9794 9.40311 11.6544 8.55303 11.4679 7.70337V7.70337Z" fill="#F2D98D"/>
<path d="M9.80374 16.1775H11.4019C11.8839 16.1775 12.3015 15.8284 12.3709 15.3514C12.5575 14.0678 13.1728 12.9236 14.0666 12.0677C13.4115 11.5632 12.8632 10.905 12.4304 10.1696C10.816 11.6676 9.80374 13.8063 9.80374 16.1775V16.1775Z" fill="#6AD7BE"/>
</g>
<defs>
<clipPath id="clip0">
<rect width="36" height="36" fill="white"/>
</clipPath>
</defs>
</svg>
