<svg width="120" height="120" viewBox="0 0 120 120" fill="none" xmlns="http://www.w3.org/2000/svg">
<path d="M52.6064 31.3936C52.9188 31.706 53.3284 31.8624 53.7376 31.8624C54.1468 31.8624 54.5564 31.706 54.8688 31.3936L56 30.2624L57.1312 31.3936C57.4436 31.706 57.8532 31.8624 58.2624 31.8624C58.6716 31.8624 59.0812 31.706 59.3936 31.3936C60.0184 30.7688 60.0184 29.756 59.3936 29.1312L58.2624 28L59.3936 26.8688C60.0184 26.244 60.0184 25.2312 59.3936 24.6064C58.7688 23.9816 57.756 23.9816 57.1312 24.6064L56 25.7376L54.8688 24.6064C54.244 23.9816 53.2312 23.9816 52.6064 24.6064C51.9816 25.2312 51.9816 26.244 52.6064 26.8688L53.7376 28L52.6064 29.1312C51.9812 29.7564 51.9812 30.7688 52.6064 31.3936Z" fill="#FF5D5D"/>
<path d="M73.6 36C74.4837 36 75.2 35.2837 75.2 34.4C75.2 33.5164 74.4837 32.8 73.6 32.8C72.7163 32.8 72 33.5164 72 34.4C72 35.2837 72.7163 36 73.6 36Z" fill="#FF5D5D"/>
<path d="M68.8 18.4001C69.6837 18.4001 70.4 17.6837 70.4 16.8001C70.4 15.9164 69.6837 15.2001 68.8 15.2001C67.9164 15.2001 67.2 15.9164 67.2 16.8001C67.2 17.6837 67.9164 18.4001 68.8 18.4001Z" fill="#FF5D5D"/>
<path d="M96 40.8001H50.262L47.1488 34.3421C47.1068 34.2545 47.0568 34.1709 46.9996 34.0929C45.6308 32.2185 43.4112 31.1001 41.0628 31.1001H23.2352C19.2452 31.1001 16 34.2893 16 38.2093V92.5513C16 96.3297 18.8896 99.4261 22.6056 99.9029C23.294 102.729 25.84 104.8 28.8 104.8H92.8C95.9528 104.8 98.5644 102.504 99.0888 99.4985C101.951 98.4325 104 95.7317 104 92.5517V48.8001C104 44.3893 100.411 40.8001 96 40.8001ZM100.8 92.5517C100.8 94.8945 98.8344 96.8001 96.418 96.8001H40.304C39.4204 96.8001 38.704 97.5165 38.704 98.4001C38.704 99.2837 39.4204 100 40.304 100H95.5552C95.0004 100.952 93.9796 101.6 92.8004 101.6H28.8C27.6352 101.6 26.5956 100.959 26.0356 100H32.0408C32.9244 100 33.6408 99.2837 33.6408 98.4001C33.6408 97.5165 32.9244 96.8001 32.0408 96.8001H23.582C21.1656 96.8001 19.2 94.8945 19.2 92.5517V38.2093C19.2 36.0537 21.01 34.3001 23.2352 34.3001H41.0624C42.3476 34.3001 43.5608 34.8861 44.3344 35.8745L46.7092 40.8001H38.4C37.5164 40.8001 36.8 41.5165 36.8 42.4001C36.8 43.2837 37.5164 44.0001 38.4 44.0001H96C98.6468 44.0001 100.8 46.1533 100.8 48.8001V92.5517Z" fill="#0984E3"/>
</svg>
