<svg width="36" height="36" viewBox="0 0 36 36" fill="none" xmlns="http://www.w3.org/2000/svg">
<path d="M30.1455 4.44832C27.2769 1.57978 23.4631 0 19.4063 0C15.3496 0 11.5357 1.57978 8.66715 4.44832C5.83011 7.28536 4.2537 11.0467 4.21939 15.0536L1.46567 20.5609C1.33419 20.8238 1.42735 21.1436 1.67935 21.2948L4.21876 22.8184V30.9375C4.21876 31.2481 4.47062 31.5 4.78126 31.5H9.84376V35.4375C9.84376 35.7481 10.0956 36 10.4063 36H28.4063C28.7169 36 28.9688 35.7481 28.9688 35.4375V26.9868C32.5471 24.0858 34.5938 19.8011 34.5938 15.1875C34.5938 11.1308 33.014 7.31686 30.1455 4.44832Z" fill="#E3E3E1"/>
<path d="M18.8438 33.75C18.5332 33.75 18.2813 33.4981 18.2813 33.1875V19.125C18.2813 18.8144 18.5332 18.5625 18.8438 18.5625C19.1545 18.5625 19.4063 18.8144 19.4063 19.125V33.1875C19.4063 33.4981 19.1545 33.75 18.8438 33.75Z" fill="#838076"/>
<path d="M27.6867 9.19569C27.5231 7.81764 26.8994 6.54161 25.9306 5.60258C24.4054 4.12419 21.7696 3.35617 18.8438 5.48017C15.918 3.35617 13.2823 4.12405 11.757 5.60258C10.7881 6.54154 10.1644 7.81757 10.0008 9.19569C9.82631 10.6647 10.21 12.1134 11.0813 13.275C14.5071 17.8428 18.4557 19.5707 18.6222 19.642C18.7625 19.7022 18.925 19.7022 19.0654 19.642C19.2318 19.5707 23.1804 17.8428 26.6063 13.275C27.4776 12.1133 27.8613 10.6646 27.6867 9.19569Z" fill="#FF82A4"/>
<path d="M12.6529 13.2749C11.7817 12.1133 11.3979 10.6646 11.5725 9.19561C11.7361 7.81755 12.3598 6.54152 13.3286 5.6025C14.0195 4.93291 14.938 4.40908 16.008 4.23358C14.2631 3.95676 12.7667 4.62375 11.757 5.6025C10.7881 6.54145 10.1644 7.81748 10.0008 9.19561C9.82631 10.6646 10.21 12.1133 11.0813 13.2749C14.5071 17.8427 18.4557 19.5706 18.6222 19.6419C18.7625 19.7021 18.925 19.7021 19.0654 19.6419C19.1002 19.627 19.3019 19.5389 19.6296 19.3674C18.3942 18.7209 15.3605 16.8851 12.6529 13.2749Z" fill="#F5577E"/>
<path d="M25.6319 21.5277C24.1308 21.1271 22.4633 21.5144 21.2857 22.692C20.1081 23.8695 19.7209 25.5371 20.1215 27.0382C21.6226 27.4387 23.2901 27.0515 24.4677 25.8739C25.6453 24.6963 26.0325 23.0287 25.6319 21.5277Z" fill="#7ECFC5"/>
<path d="M12.0556 21.5277C13.5566 21.1271 15.2242 21.5144 16.4018 22.692C17.5794 23.8695 17.9666 25.5371 17.5661 27.0382C16.065 27.4387 14.3974 27.0515 13.2198 25.8739C12.0423 24.6963 11.655 23.0287 12.0556 21.5277Z" fill="#7ECFC5"/>
</svg>
