<svg width="24" height="24" viewBox="0 0 24 24" fill="none" xmlns="http://www.w3.org/2000/svg">
<g clip-path="url(#clip0)">
<path d="M11.9997 23.5279C18.3663 23.5279 23.5275 18.3667 23.5275 12.0002C23.5275 5.63356 18.3663 0.472412 11.9997 0.472412C5.63313 0.472412 0.471985 5.63356 0.471985 12.0002C0.471985 18.3667 5.63313 23.5279 11.9997 23.5279Z" fill="black"/>
<path d="M15.3541 19.0398C9.61372 19.0398 4.96024 14.3863 4.96024 8.64593C4.96024 5.68453 6.19877 3.01246 8.18607 1.11926C3.6938 2.6937 0.471985 6.97039 0.471985 12.0003C0.471985 18.3669 5.63315 23.5281 11.9997 23.5281C17.0296 23.5281 21.3063 20.3062 22.8808 15.814C20.9876 17.8013 18.3155 19.0398 15.3541 19.0398Z" fill="#DADADA"/>
<path d="M4.17734 19.813C4.36174 19.9974 4.36178 20.2964 4.17734 20.4808C3.99294 20.6652 3.69393 20.6652 3.50953 20.4808C3.32514 20.2964 3.32514 19.9974 3.50953 19.813C3.69393 19.6286 3.9929 19.6286 4.17734 19.813ZM20.4852 20.4856C16.3284 24.6424 9.88102 25.1116 5.20647 21.8942C4.69599 21.5428 5.23147 20.7649 5.74195 21.1164L5.74199 21.1156C10.0484 24.0792 15.9877 23.6468 19.817 19.8175C20.5042 19.1303 21.0815 18.375 21.5499 17.5736C20.8981 18.0294 18.6807 19.5122 15.355 19.5122H15.3541C9.54147 19.5122 4.48778 14.8364 4.48778 8.64584C4.48778 5.32651 6.00623 3.05725 6.41254 2.46952C6.41708 2.46296 6.4218 2.45658 6.42638 2.45006C5.62492 2.91849 4.86962 3.49578 4.18244 4.18295C0.35646 8.00898 -0.0783338 13.9414 2.87688 18.2469L2.87626 18.2474C3.23301 18.7668 2.4547 19.3014 2.09795 18.7819C-1.11068 14.1083 -0.639036 7.66816 3.51435 3.51477C8.20071 -1.17159 15.7988 -1.17159 20.4852 3.51477C25.1715 8.20117 25.1715 15.7993 20.4852 20.4856ZM22.468 15.5601C23.7774 11.7 22.8943 7.2602 19.817 4.18295C16.7393 1.10523 12.2985 0.222275 8.43793 1.53261C6.50027 3.41754 5.43268 5.94372 5.43268 8.64584C5.43268 14.1842 9.96819 18.5673 15.3541 18.5673C18.061 18.5673 20.5832 17.4997 22.468 15.5601Z" fill="black"/>
</g>
<defs>
<clipPath id="clip0">
<rect width="24" height="24" fill="white"/>
</clipPath>
</defs>
</svg>
