<svg viewBox="0 0 35 35" fill="none" xmlns="http://www.w3.org/2000/svg">
<g clip-path="url(#clip0)">
<path d="M20.7812 4.375H4.01042C1.79375 4.375 0 6.16875 0 8.38542V26.6146C0 28.8313 1.79375 30.625 4.01042 30.625H14.7729L15.0937 28.8313C15.241 28.0146 15.6187 27.2854 16.2035 26.6875L18.0994 24.7917H5.46875C4.87083 24.7917 4.375 24.2958 4.375 23.6979C4.375 23.1 4.87083 22.6042 5.46875 22.6042H19.3229C19.5854 22.6042 19.8333 22.7063 20.0229 22.8667L24.7917 18.1125V8.38542C24.7917 6.16875 22.9979 4.375 20.7812 4.375ZM19.3229 20.0521H5.46875C4.87083 20.0521 4.375 19.5563 4.375 18.9583C4.375 18.3604 4.87083 17.8646 5.46875 17.8646H19.3229C19.9208 17.8646 20.4167 18.3604 20.4167 18.9583C20.4167 19.5563 19.9208 20.0521 19.3229 20.0521ZM19.3229 15.3125H5.46875C4.87083 15.3125 4.375 14.8167 4.375 14.2188C4.375 13.6208 4.87083 13.125 5.46875 13.125H19.3229C19.9208 13.125 20.4167 13.6208 20.4167 14.2188C20.4167 14.8167 19.9208 15.3125 19.3229 15.3125Z" fill="#2196F3"/>
<path d="M17.8646 2.91667H16.2604C15.7792 1.23958 14.2334 0 12.3959 0C10.5583 0 9.01251 1.23958 8.53126 2.91667H6.92709C6.32918 2.91667 5.83334 3.4125 5.83334 4.01042V6.92708C5.83334 8.32708 6.98543 9.47917 8.38543 9.47917H16.4063C17.8063 9.47917 18.9584 8.32708 18.9584 6.92708V4.01042C18.9584 3.4125 18.4625 2.91667 17.8646 2.91667Z" fill="#1976D2"/>
<path d="M20.4167 14.2188C20.4167 14.8167 19.9208 15.3125 19.3229 15.3125H5.46875C4.87083 15.3125 4.375 14.8167 4.375 14.2188C4.375 13.6208 4.87083 13.125 5.46875 13.125H19.3229C19.9208 13.125 20.4167 13.6208 20.4167 14.2188Z" fill="white"/>
<path d="M20.4167 18.9583C20.4167 19.5562 19.9208 20.052 19.3229 20.052H5.46875C4.87083 20.052 4.375 19.5562 4.375 18.9583C4.375 18.3603 4.87083 17.8645 5.46875 17.8645H19.3229C19.9208 17.8645 20.4167 18.3603 20.4167 18.9583Z" fill="white"/>
<path d="M20.0229 22.8667L18.0979 24.7917H5.46875C4.87083 24.7917 4.375 24.2959 4.375 23.698C4.375 23.1001 4.87083 22.6042 5.46875 22.6042H19.3229C19.5854 22.6042 19.8333 22.7063 20.0229 22.8667Z" fill="white"/>
<path d="M5.83333 4.375H4.01041C1.79375 4.375 0 6.16875 0 8.38542V26.6146C0 28.8313 1.79375 30.625 4.01041 30.625H12.3958V24.7917H5.46875C4.87083 24.7917 4.375 24.2958 4.375 23.6979C4.375 23.1 4.87083 22.6042 5.46875 22.6042H12.3958V20.0521H5.46875C4.87083 20.0521 4.375 19.5563 4.375 18.9583C4.375 18.3604 4.87083 17.8646 5.46875 17.8646H12.3958V15.3125H5.46875C4.87083 15.3125 4.375 14.8167 4.375 14.2188C4.375 13.6208 4.87083 13.125 5.46875 13.125H12.3958V9.47917H8.38541C6.98541 9.47917 5.83333 8.32708 5.83333 6.92708V4.375Z" fill="#1D83D4"/>
<path d="M12.3958 0C10.5583 0 9.01251 1.23958 8.53126 2.91667H6.92709C6.32918 2.91667 5.83334 3.4125 5.83334 4.01042V4.375V6.92708C5.83334 8.32708 6.98543 9.47917 8.38543 9.47917H12.3958V0Z" fill="#1667B7"/>
<path d="M12.3958 13.125H5.46875C4.87083 13.125 4.375 13.6208 4.375 14.2188C4.375 14.8167 4.87083 15.3125 5.46875 15.3125H12.3958V13.125Z" fill="#DEDEDE"/>
<path d="M12.3958 17.8645H5.46875C4.87083 17.8645 4.375 18.3603 4.375 18.9583C4.375 19.5562 4.87083 20.052 5.46875 20.052H12.3958V17.8645Z" fill="#DEDEDE"/>
<path d="M12.3958 22.6042H5.46875C4.87083 22.6042 4.375 23.1001 4.375 23.698C4.375 24.2959 4.87083 24.7917 5.46875 24.7917H12.3958V22.6042Z" fill="#DEDEDE"/>
<path d="M18.2685 35C17.9812 35 17.7012 34.8862 17.4956 34.6792C17.2433 34.4269 17.1296 34.0681 17.1923 33.7152L17.9652 29.3329C18.0031 29.1127 18.111 28.9085 18.2685 28.751L29.0967 17.9229C30.4267 16.5915 31.7333 16.9502 32.4479 17.6648L34.2519 19.4687C35.2479 20.4648 35.2479 22.0821 34.2519 23.0781L23.4237 33.9062C23.2662 34.0652 23.0621 34.1717 22.8404 34.211L18.4581 34.9825L18.2685 35ZM22.6508 33.1333H22.6654H22.6508Z" fill="#FFC107"/>
<path d="M30.9604 17.026C30.3887 17.026 29.7456 17.2739 29.0967 17.9229L18.2685 28.751C18.111 28.9085 18.0031 29.1127 17.9652 29.3329L17.1923 33.7152C17.1296 34.0681 17.2433 34.4268 17.4956 34.6791C17.5073 34.6908 17.5175 34.701 17.5292 34.7112L33.511 18.7279L32.4465 17.6633C32.0819 17.2987 31.5598 17.026 30.9604 17.026V17.026Z" fill="#DEA806"/>
</g>
<defs>
<clipPath id="clip0">
<rect width="35" height="35" fill="white"/>
</clipPath>
</defs>
</svg>
