<?xml version="1.0" encoding="iso-8859-1"?>
<!-- Generator: Adobe Illustrator 19.0.0, SVG Export Plug-In . SVG Version: 6.00 Build 0)  -->
<svg version="1.1" id="Capa_1" xmlns="http://www.w3.org/2000/svg" xmlns:xlink="http://www.w3.org/1999/xlink" x="0px" y="0px"
	 viewBox="0 0 512 512" style="enable-background:new 0 0 512 512;" xml:space="preserve">
<circle style="fill:#FE990E;" cx="256" cy="256" r="256"/>
<path style="fill:#BF6106;" d="M512,256c0-12.261-0.881-24.315-2.548-36.117L400.784,111.216h-4.867L371.602,87l-129.068,24.216
	h-131.32v24.638l-24.216,4.543l24.216,129.068v131.32L219.88,509.451C231.683,511.118,243.738,512,256,512
	C397.385,512,512,397.385,512,256z"/>
<rect x="111.226" y="111.225" transform="matrix(-0.9829 0.1844 -0.1844 -0.9829 554.8526 460.4367)" style="fill:#53FAFF;" width="289.584" height="289.584"/>
<polygon style="fill:#01D8DF;" points="425.001,371.599 400.784,376.148 269.458,400.787 256.004,403.309 256.004,111.215 
	242.551,111.215 256.004,108.694 371.608,86.999 376.157,111.215 400.784,242.518 "/>
<rect x="111.22" y="111.22" style="fill:#FFFFFF;" width="289.57" height="289.57"/>
<rect x="256" y="111.22" style="fill:#FEF4CB;" width="144.78" height="289.57"/>
<rect x="159.5" y="182.25" style="fill:#FF0634;" width="193.01" height="23.391"/>
<rect x="256" y="182.25" style="fill:#4C5CE3;" width="96.5" height="23.396"/>
<rect x="159.5" y="244.31" style="fill:#FF0634;" width="193.01" height="23.391"/>
<rect x="256" y="244.3" style="fill:#4C5CE3;" width="96.5" height="23.396"/>
<rect x="159.5" y="306.36" style="fill:#FF0634;" width="193.01" height="23.391"/>
<rect x="256" y="306.36" style="fill:#4C5CE3;" width="96.5" height="23.396"/>
<polygon style="fill:#53FAFF;" points="256.004,108.694 256.004,111.215 242.551,111.215 "/>
<g>
</g>
<g>
</g>
<g>
</g>
<g>
</g>
<g>
</g>
<g>
</g>
<g>
</g>
<g>
</g>
<g>
</g>
<g>
</g>
<g>
</g>
<g>
</g>
<g>
</g>
<g>
</g>
<g>
</g>
</svg>
