<svg width="36" height="36" viewBox="0 0 36 36" fill="none" xmlns="http://www.w3.org/2000/svg">
<path d="M26.5078 2.10938H15.8906H5.34375C4.76128 2.10938 4.28906 2.58145 4.28906 3.16406V33.8906H15.8906H19.5055C20.4962 35.1181 22.9494 36 24.3281 36C26.0468 36 27.5625 34.5944 27.5625 32.8359V3.16406C27.5625 2.58145 27.0903 2.10938 26.5078 2.10938Z" fill="#F0F7FF"/>
<path d="M24.3281 36C26.0468 36 27.5625 34.5944 27.5625 32.8359V3.16406C27.5625 2.58145 27.0903 2.10938 26.5078 2.10938H15.8906V33.8906H19.5055C20.4962 35.1181 22.9494 36 24.3281 36Z" fill="#DFE7F4"/>
<path d="M33.8906 7.45312H32.8359H31.7812L29.6719 8.50781V10.6172L31.7812 11.6719H32.8359H33.8906L36 10.6172V8.50781L33.8906 7.45312Z" fill="#613D5C"/>
<path d="M36 10.6172V8.50781L33.8906 7.45312H32.8359V11.6719H33.8906L36 10.6172Z" fill="#4B2746"/>
<path d="M34.2532 25.3828H32.8359H31.3198L29.6719 26.4375C29.6719 26.543 29.693 26.6695 29.7352 26.7749L31.8446 33.1734C31.9712 33.5952 32.3719 33.8906 32.8359 33.8906C33.2999 33.8906 33.7007 33.5953 33.8273 33.1734L35.9366 26.7749C35.9789 26.6695 36 26.543 36 26.4375L34.2532 25.3828Z" fill="#FFE1BA"/>
<path d="M33.8273 33.1734L35.9366 26.7749C35.9789 26.6695 36 26.543 36 26.4375L34.2532 25.3828H32.8359V33.8906C33.2999 33.8906 33.7007 33.5953 33.8273 33.1734Z" fill="#FFBFAB"/>
<path d="M11.6719 12.7266C11.402 12.7266 11.1322 12.6236 10.9262 12.4176L8.81684 10.3082C8.40488 9.89622 8.40488 9.22875 8.81684 8.81678C9.2288 8.40482 9.89628 8.40482 10.3082 8.81678L11.6719 10.1805L13.0356 8.81678C13.4475 8.40482 14.115 8.40482 14.527 8.81678C14.9389 9.22875 14.9389 9.89622 14.527 10.3082L12.4176 12.4176C12.2116 12.6236 11.9417 12.7266 11.6719 12.7266Z" fill="#9CDD05"/>
<path d="M11.6719 19.0547C11.402 19.0547 11.1322 18.9517 10.9262 18.7457L8.81684 16.6363C8.40488 16.2243 8.40488 15.5569 8.81684 15.1449C9.2288 14.7329 9.89628 14.7329 10.3082 15.1449L11.6719 16.5086L13.0356 15.1449C13.4475 14.7329 14.115 14.7329 14.527 15.1449C14.9389 15.5569 14.9389 16.2243 14.527 16.6363L12.4176 18.7457C12.2116 18.9517 11.9417 19.0547 11.6719 19.0547Z" fill="#9CDD05"/>
<path d="M11.6719 25.3828C11.402 25.3828 11.1322 25.2798 10.9262 25.0738L8.81684 22.9644C8.40488 22.5525 8.40488 21.885 8.81684 21.473C9.2288 21.0611 9.89628 21.0611 10.3082 21.473L11.6719 22.8367L13.0356 21.473C13.4475 21.0611 14.115 21.0611 14.527 21.473C14.9389 21.885 14.9389 22.5525 14.527 22.9644L12.4176 25.0738C12.2116 25.2798 11.9417 25.3828 11.6719 25.3828Z" fill="#9CDD05"/>
<path d="M32.8359 10.6172H29.6719V26.4375H32.8359H36V10.6172H32.8359Z" fill="#FABE2C"/>
<path d="M32.8359 10.6172H36V26.4375H32.8359V10.6172Z" fill="#FF9100"/>
<path d="M32.8359 4.28906C31.0851 4.28906 29.6719 5.70227 29.6719 7.45312V8.50781H32.8359H36V7.45312C36 5.70227 34.5868 4.28906 32.8359 4.28906Z" fill="#FF641A"/>
<path d="M36 7.45312C36 5.70227 34.5868 4.28906 32.8359 4.28906V8.50781H36V7.45312Z" fill="#F03800"/>
<path d="M15.8906 12.7266H22.2188C22.8017 12.7266 23.2734 12.2548 23.2734 11.6719C23.2734 11.0889 22.8017 10.6172 22.2188 10.6172H15.8906C15.3077 10.6172 14.8359 11.0889 14.8359 11.6719C14.8359 12.2548 15.3077 12.7266 15.8906 12.7266Z" fill="#613D5C"/>
<path d="M22.2188 16.9453H15.8906C15.3077 16.9453 14.8359 17.417 14.8359 18C14.8359 18.583 15.3077 19.0547 15.8906 19.0547H22.2188C22.8017 19.0547 23.2734 18.583 23.2734 18C23.2734 17.417 22.8017 16.9453 22.2188 16.9453Z" fill="#613D5C"/>
<path d="M22.2188 23.2734H15.8906C15.3077 23.2734 14.8359 23.7452 14.8359 24.3281C14.8359 24.9111 15.3077 25.3828 15.8906 25.3828H22.2188C22.8017 25.3828 23.2734 24.9111 23.2734 24.3281C23.2734 23.7452 22.8017 23.2734 22.2188 23.2734Z" fill="#613D5C"/>
<path d="M23.2734 11.6719C23.2734 11.0889 22.8017 10.6172 22.2188 10.6172H15.8906V12.7266H22.2188C22.8017 12.7266 23.2734 12.2548 23.2734 11.6719Z" fill="#4B2746"/>
<path d="M23.2734 18C23.2734 17.417 22.8017 16.9453 22.2188 16.9453H15.8906V19.0547H22.2188C22.8017 19.0547 23.2734 18.583 23.2734 18Z" fill="#4B2746"/>
<path d="M23.2734 24.3281C23.2734 23.7452 22.8017 23.2734 22.2188 23.2734H15.8906V25.3828H22.2188C22.8017 25.3828 23.2734 24.9111 23.2734 24.3281Z" fill="#4B2746"/>
<path d="M20.1094 0H15.8906H11.6719C11.0889 0 10.6172 0.471727 10.6172 1.05469V3.16406C10.6172 3.74702 11.0889 4.21875 11.6719 4.21875H15.8906H20.1094C20.6923 4.21875 21.1641 3.74702 21.1641 3.16406V1.05469C21.1641 0.471727 20.6923 0 20.1094 0Z" fill="#FF641A"/>
<path d="M21.1641 3.16406V1.05469C21.1641 0.471727 20.6923 0 20.1094 0H15.8906V4.21875H20.1094C20.6923 4.21875 21.1641 3.74702 21.1641 3.16406Z" fill="#F03800"/>
<path d="M21.1641 32.8359C21.1641 32.2533 20.6918 31.7812 20.1094 31.7812H15.8906H1.05469C0.472219 31.7812 0 32.2533 0 32.8359V33.8906C0 35.0555 0.944367 36 2.10938 36H15.8906H24.3281C22.5773 36 21.1641 34.5866 21.1641 32.8359Z" fill="#DFE7F4"/>
<path d="M21.1641 32.8359C21.1641 32.2533 20.6918 31.7812 20.1094 31.7812H15.8906V36H24.3281C22.5773 36 21.1641 34.5866 21.1641 32.8359Z" fill="#C7CFE1"/>
</svg>
